<svg width="387" height="88" viewBox="0 0 387 88" fill="none" xmlns="http://www.w3.org/2000/svg">
<path d="M0.03125 86V1.44922H20.4805L44.5039 62.2109H44.8555L68.8789 1.44922H89.3281V86H73.5664V28.8125H73.0391L50.2461 86H39.1133L16.2617 28.8125H15.793V86H0.03125ZM109.728 86.9961C97.1305 86.9961 88.6344 79.0859 88.6344 68.0117V67.8945C88.6344 56.4688 97.482 49.7891 113.068 48.793L128.595 47.8555V43.9883C128.595 38.4219 124.963 34.9648 118.283 34.9648C111.896 34.9648 108.029 37.9531 107.209 41.9961L107.091 42.5234H91.4469L91.5055 41.8203C92.443 30.2188 102.404 21.8984 118.986 21.8984C135.216 21.8984 145.705 30.2773 145.705 42.9336V86H128.595V76.625H128.244C124.67 83.0703 117.99 86.9961 109.728 86.9961ZM105.568 67.1328C105.568 71.7617 109.377 74.5156 115.295 74.5156C122.97 74.5156 128.595 69.5938 128.595 63.0312V58.5195L115.646 59.3398C109.025 59.75 105.568 62.5625 105.568 67.0156V67.1328ZM151.749 86V36.0781H143.195V23.1875H151.749V18.1484C151.749 5.84375 157.609 0.160156 172.433 0.160156C175.597 0.160156 179.054 0.453125 181.046 0.863281V12.1719C179.874 11.9375 178.234 11.8789 176.652 11.8789C170.968 11.8789 168.448 14.2812 168.448 18.793V23.1875H180.929V36.0781H168.859V86H151.749ZM192.598 86L175.899 23.1875H193.126L202.618 69.7695H202.97L214.102 23.1875H230.509L241.7 69.7695H242.052L251.602 23.1875H268.477L251.837 86H233.614L222.247 41.5859H221.895L210.587 86H192.598ZM302.764 87.2891C293.741 87.2891 286.827 82.7188 283.428 75.2773H283.077V86H265.967V1.44922H283.077V34.0859H283.428C286.885 26.4688 293.858 21.8984 302.823 21.8984C318.584 21.8984 328.37 34.0859 328.37 54.5352V54.5938C328.37 74.9844 318.584 87.2891 302.764 87.2891ZM297.08 73.1094C305.577 73.1094 310.967 66.0195 310.967 54.5938V54.5352C310.967 43.0508 305.577 36.0781 297.08 36.0781C288.819 36.0781 283.077 43.2266 283.077 54.5352V54.5938C283.077 65.9609 288.76 73.1094 297.08 73.1094ZM327.969 86V1.44922H345.078V34.0273H345.43C348.652 26.2344 355.273 21.8984 364.707 21.8984C378.301 21.8984 386.738 31.3906 386.738 46.5664V86H369.629V50.082C369.629 41.293 365.293 36.0781 357.5 36.0781C349.941 36.0781 345.078 41.8203 345.078 50.0234V86H327.969Z" fill="white"/>
</svg>
