<svg width="120" height="30" viewBox="0 0 120 30" fill="none" xmlns="http://www.w3.org/2000/svg">
<path d="M19.5757 0.930664H28.0117V29H22.5464V10.0142C22.5464 9.48096 22.5464 8.71924 22.5654 7.729C22.5654 6.73877 22.5845 5.97705 22.5845 5.44385L17.2715 29H11.5776L6.30273 5.44385C6.30273 5.97705 6.30273 6.73877 6.32178 7.729C6.32178 8.71924 6.34082 9.48096 6.34082 10.0142V29H0.875488V0.930664H9.40674L14.5103 23.0015L19.5757 0.930664ZM40.1748 18.9072C39.8321 19.1357 39.4703 19.3071 39.1275 19.4404C38.7847 19.5737 38.3086 19.688 37.6993 19.8022L36.4805 20.0308C35.3379 20.2402 34.5191 20.4878 34.024 20.7734C33.1861 21.2686 32.7671 22.0493 32.7671 23.0776C32.7671 24.0107 33.0147 24.6772 33.5288 25.0962C34.043 25.5151 34.6714 25.7056 35.4141 25.7056C36.5757 25.7056 37.6421 25.3628 38.6324 24.6772C39.6226 23.9917 40.1368 22.7539 40.1748 20.9258V18.9072ZM36.8804 16.3745C37.8706 16.2603 38.5943 16.0889 39.0323 15.8984C39.794 15.5747 40.1939 15.0605 40.1939 14.356C40.1939 13.5181 39.8892 12.9277 39.2989 12.604C38.7085 12.2803 37.8516 12.1089 36.709 12.1089C35.4141 12.1089 34.5191 12.4326 33.9859 13.061C33.605 13.5371 33.3384 14.1655 33.2242 14.9653H27.9873C28.1016 13.1562 28.5967 11.6709 29.5108 10.4902C30.939 8.66211 33.3955 7.74805 36.8995 7.74805C39.1656 7.74805 41.1841 8.20508 42.9551 9.1001C44.7071 10.0142 45.6021 11.709 45.6021 14.2036V23.7251C45.6021 24.3916 45.6021 25.1914 45.6402 26.1245C45.6783 26.8481 45.7735 27.3242 45.9639 27.5718C46.1353 27.8384 46.4019 28.0479 46.7637 28.2002V29H40.8604C40.689 28.5811 40.5747 28.2002 40.5176 27.8193C40.4414 27.4575 40.4034 27.0386 40.3653 26.5625C39.6036 27.3813 38.7466 28.0669 37.7754 28.6382C36.5948 29.3237 35.2808 29.6475 33.8145 29.6475C31.9292 29.6475 30.3677 29.1143 29.149 28.0479C27.9302 26.9814 27.3208 25.458 27.3208 23.4775C27.3208 20.9258 28.292 19.0786 30.2725 17.936C31.3389 17.3267 32.9385 16.8696 35.0332 16.603L36.8804 16.3745ZM54.7374 0.683105C55.004 0.702148 55.3848 0.721191 55.88 0.759277V5.17725C55.5753 5.13916 55.0611 5.12012 54.3375 5.10107C53.6138 5.08203 53.1187 5.23438 52.8521 5.57715C52.5855 5.91992 52.4522 6.28174 52.4522 6.68164V8.43359H56.0133V12.2612H52.4522V29H47.044V12.2612H44.0162V8.43359H46.9869V7.10059C46.9869 4.8916 47.3487 3.34912 48.1104 2.51123C48.8912 1.27344 50.7955 0.64502 53.8043 0.64502C54.147 0.64502 54.4517 0.664062 54.7374 0.683105ZM64.6344 8.24316H70.1378L73.2989 23.1919L76.5363 8.24316H82.192L76.1744 29H70.5948L67.3385 13.8799L64.0441 29H58.4073L52.5802 8.24316H58.4073L61.6446 23.1348L64.6344 8.24316ZM98.5255 10.7378C100.068 12.7183 100.849 15.251 100.849 18.355C100.849 21.5923 100.087 24.2583 98.5636 26.3721C97.0402 28.5049 94.9074 29.5522 92.1842 29.5522C90.4704 29.5522 89.0802 29.2095 88.0519 28.5239C87.4235 28.124 86.757 27.4194 86.0334 26.3911V29H80.7204V0.96875H86.1286V10.9473C86.8141 9.99512 87.5568 9.25244 88.3947 8.73828C89.3659 8.10986 90.6037 7.78613 92.1271 7.78613C94.8503 7.78613 96.9831 8.77637 98.5255 10.7378ZM93.9933 23.3823C94.755 22.2588 95.1549 20.7734 95.1549 18.9263C95.1549 17.46 94.9645 16.2412 94.5836 15.27C93.86 13.4419 92.527 12.5278 90.5846 12.5278C88.6042 12.5278 87.2521 13.4229 86.5285 15.2129C86.1476 16.165 85.9572 17.4028 85.9572 18.9072C85.9572 20.6973 86.338 22.1636 87.1378 23.3252C87.9186 24.5059 89.1183 25.0771 90.737 25.0771C92.1271 25.0771 93.2126 24.5249 93.9933 23.3823ZM115.392 8.37646C116.44 8.8335 117.297 9.5 117.982 10.4141C118.553 11.1948 118.896 11.9946 119.029 12.8135C119.144 13.6323 119.22 14.9653 119.22 16.8125V29H113.678V16.3745C113.678 15.27 113.488 14.356 113.107 13.6704C112.612 12.7183 111.66 12.2231 110.289 12.2231C108.842 12.2231 107.756 12.7183 107.013 13.6704C106.271 14.6226 105.909 15.9937 105.909 17.7646V29H100.501V1.02588H105.909V10.9473C106.69 9.74756 107.604 8.90967 108.632 8.43359C109.66 7.95752 110.765 7.70996 111.907 7.70996C113.183 7.70996 114.345 7.93848 115.392 8.37646Z" fill="white"/>
</svg>
