<svg width="156" height="36" viewBox="0 0 156 36" fill="none" xmlns="http://www.w3.org/2000/svg">
<path d="M0.8125 35V1.17969H8.99219L18.6016 25.4844H18.7422L28.3516 1.17969H36.5312V35H30.2266V12.125H30.0156L20.8984 35H16.4453L7.30469 12.125H7.11719V35H0.8125ZM44.6912 35.3984C39.6522 35.3984 36.2537 32.2344 36.2537 27.8047V27.7578C36.2537 23.1875 39.7928 20.5156 46.0272 20.1172L52.2381 19.7422V18.1953C52.2381 15.9688 50.785 14.5859 48.1131 14.5859C45.5584 14.5859 44.0116 15.7812 43.6834 17.3984L43.6366 17.6094H37.3787L37.4022 17.3281C37.7772 12.6875 41.7616 9.35938 48.3944 9.35938C54.8866 9.35938 59.0819 12.7109 59.0819 17.7734V35H52.2381V31.25H52.0975C50.6678 33.8281 47.9959 35.3984 44.6912 35.3984ZM43.0272 27.4531C43.0272 29.3047 44.5506 30.4062 46.9178 30.4062C49.9881 30.4062 52.2381 28.4375 52.2381 25.8125V24.0078L47.0584 24.3359C44.41 24.5 43.0272 25.625 43.0272 27.4062V27.4531ZM61.4997 35V15.0312H58.0778V9.875H61.4997V7.85938C61.4997 2.9375 63.8434 0.664062 69.7731 0.664062C71.0387 0.664062 72.4216 0.78125 73.2184 0.945312V5.46875C72.7497 5.375 72.0934 5.35156 71.4606 5.35156C69.1872 5.35156 68.1794 6.3125 68.1794 8.11719V9.875H73.1716V15.0312H68.3434V35H61.4997ZM77.8394 35L71.1597 9.875H78.0503L81.8472 28.5078H81.9878L86.4409 9.875H93.0034L97.48 28.5078H97.6206L101.441 9.875H108.191L101.535 35H94.2456L89.6988 17.2344H89.5581L85.0347 35H77.8394ZM121.906 35.5156C118.296 35.5156 115.531 33.6875 114.171 30.7109H114.031V35H107.187V1.17969H114.031V14.2344H114.171C115.554 11.1875 118.343 9.35938 121.929 9.35938C128.234 9.35938 132.148 14.2344 132.148 22.4141V22.4375C132.148 30.5938 128.234 35.5156 121.906 35.5156ZM119.632 29.8438C123.031 29.8438 125.187 27.0078 125.187 22.4375V22.4141C125.187 17.8203 123.031 15.0312 119.632 15.0312C116.327 15.0312 114.031 17.8906 114.031 22.4141V22.4375C114.031 26.9844 116.304 29.8438 119.632 29.8438ZM131.988 35V1.17969H138.831V14.2109H138.972C140.261 11.0938 142.909 9.35938 146.683 9.35938C152.12 9.35938 155.495 13.1562 155.495 19.2266V35H148.652V20.6328C148.652 17.1172 146.917 15.0312 143.8 15.0312C140.777 15.0312 138.831 17.3281 138.831 20.6094V35H131.988Z" fill="white"/>
</svg>
