<svg width="389" height="97" viewBox="0 0 389 97" fill="none" xmlns="http://www.w3.org/2000/svg">
<path d="M61.8125 1.875H89.5V94H71.5625V31.6875C71.5625 29.9375 71.5625 27.4375 71.625 24.1875C71.625 20.9375 71.6875 18.4375 71.6875 16.6875L54.25 94H35.5625L18.25 16.6875C18.25 18.4375 18.25 20.9375 18.3125 24.1875C18.3125 27.4375 18.375 29.9375 18.375 31.6875V94H0.4375V1.875H28.4375L45.1875 74.3125L61.8125 1.875ZM129.42 60.875C128.295 61.625 127.107 62.1875 125.982 62.625C124.857 63.0625 123.295 63.4375 121.295 63.8125L117.295 64.5625C113.545 65.25 110.857 66.0625 109.232 67C106.482 68.625 105.107 71.1875 105.107 74.5625C105.107 77.625 105.92 79.8125 107.607 81.1875C109.295 82.5625 111.357 83.1875 113.795 83.1875C117.607 83.1875 121.107 82.0625 124.357 79.8125C127.607 77.5625 129.295 73.5 129.42 67.5V60.875ZM118.607 52.5625C121.857 52.1875 124.232 51.625 125.67 51C128.17 49.9375 129.482 48.25 129.482 45.9375C129.482 43.1875 128.482 41.25 126.545 40.1875C124.607 39.125 121.795 38.5625 118.045 38.5625C113.795 38.5625 110.857 39.625 109.107 41.6875C107.857 43.25 106.982 45.3125 106.607 47.9375H89.42C89.795 42 91.42 37.125 94.42 33.25C99.1075 27.25 107.17 24.25 118.67 24.25C126.107 24.25 132.732 25.75 138.545 28.6875C144.295 31.6875 147.232 37.25 147.232 45.4375V76.6875C147.232 78.875 147.232 81.5 147.357 84.5625C147.482 86.9375 147.795 88.5 148.42 89.3125C148.982 90.1875 149.857 90.875 151.045 91.375V94H131.67C131.107 92.625 130.732 91.375 130.545 90.125C130.295 88.9375 130.17 87.5625 130.045 86C127.545 88.6875 124.732 90.9375 121.545 92.8125C117.67 95.0625 113.357 96.125 108.545 96.125C102.357 96.125 97.2325 94.375 93.2325 90.875C89.2325 87.375 87.2325 82.375 87.2325 75.875C87.2325 67.5 90.42 61.4375 96.92 57.6875C100.42 55.6875 105.67 54.1875 112.545 53.3125L118.607 52.5625ZM177.215 1.0625C178.09 1.125 179.34 1.1875 180.965 1.3125V15.8125C179.965 15.6875 178.277 15.625 175.902 15.5625C173.527 15.5 171.902 16 171.027 17.125C170.152 18.25 169.715 19.4375 169.715 20.75V26.5H181.402V39.0625H169.715V94H151.965V39.0625H142.027V26.5H151.777V22.125C151.777 14.875 152.965 9.8125 155.465 7.0625C158.027 3 164.277 0.9375 174.152 0.9375C175.277 0.9375 176.277 1 177.215 1.0625ZM209.697 25.875H227.76L238.135 74.9375L248.76 25.875H267.322L247.572 94H229.26L218.572 44.375L207.76 94H189.26L170.135 25.875H189.26L199.885 74.75L209.697 25.875ZM320.93 34.0625C325.992 40.5625 328.555 48.875 328.555 59.0625C328.555 69.6875 326.055 78.4375 321.055 85.375C316.055 92.375 309.055 95.8125 300.117 95.8125C294.492 95.8125 289.93 94.6875 286.555 92.4375C284.492 91.125 282.305 88.8125 279.93 85.4375V94H262.492V2H280.242V34.75C282.492 31.625 284.93 29.1875 287.68 27.5C290.867 25.4375 294.93 24.375 299.93 24.375C308.867 24.375 315.867 27.625 320.93 34.0625ZM306.055 75.5625C308.555 71.875 309.867 67 309.867 60.9375C309.867 56.125 309.242 52.125 307.992 48.9375C305.617 42.9375 301.242 39.9375 294.867 39.9375C288.367 39.9375 283.93 42.875 281.555 48.75C280.305 51.875 279.68 55.9375 279.68 60.875C279.68 66.75 280.93 71.5625 283.555 75.375C286.117 79.25 290.055 81.125 295.367 81.125C299.93 81.125 303.492 79.3125 306.055 75.5625ZM376.288 26.3125C379.725 27.8125 382.538 30 384.788 33C386.663 35.5625 387.788 38.1875 388.225 40.875C388.6 43.5625 388.85 47.9375 388.85 54V94H370.663V52.5625C370.663 48.9375 370.038 45.9375 368.788 43.6875C367.163 40.5625 364.038 38.9375 359.538 38.9375C354.788 38.9375 351.225 40.5625 348.788 43.6875C346.35 46.8125 345.163 51.3125 345.163 57.125V94H327.413V2.1875H345.163V34.75C347.725 30.8125 350.725 28.0625 354.1 26.5C357.475 24.9375 361.1 24.125 364.85 24.125C369.038 24.125 372.85 24.875 376.288 26.3125Z" fill="white"/>
</svg>
