<svg width="126" height="29" viewBox="0 0 126 29" fill="none" xmlns="http://www.w3.org/2000/svg">
<path d="M0.285156 28V0.520996H6.93115L14.7388 20.2686H14.853L22.6606 0.520996H29.3066V28H24.1841V9.41406H24.0127L16.605 28H12.9868L5.56006 9.41406H5.40771V28H0.285156ZM35.9366 28.3237C31.8424 28.3237 29.0812 25.7529 29.0812 22.1538V22.1157C29.0812 18.4023 31.9567 16.2314 37.0221 15.9077L42.0685 15.603V14.3462C42.0685 12.5371 40.8878 11.4136 38.7169 11.4136C36.6412 11.4136 35.3844 12.3848 35.1178 13.6987L35.0797 13.8701H29.9952L30.0143 13.6416C30.319 9.87109 33.5563 7.16699 38.9454 7.16699C44.2203 7.16699 47.629 9.89014 47.629 14.0034V28H42.0685V24.9531H41.9542C40.7926 27.0479 38.6217 28.3237 35.9366 28.3237ZM34.5846 21.8682C34.5846 23.3726 35.8224 24.2676 37.7457 24.2676C40.2404 24.2676 42.0685 22.668 42.0685 20.5352V19.0688L37.86 19.3354C35.7081 19.4688 34.5846 20.3828 34.5846 21.8301V21.8682ZM49.5935 28V11.7754H46.8132V7.58594H49.5935V5.94824C49.5935 1.94922 51.4978 0.102051 56.3157 0.102051C57.344 0.102051 58.4675 0.197266 59.115 0.330566V4.00586C58.7341 3.92969 58.2009 3.91064 57.6868 3.91064C55.8396 3.91064 55.0207 4.69141 55.0207 6.15771V7.58594H59.0769V11.7754H55.154V28H49.5935ZM62.8695 28L57.4422 7.58594H63.0409L66.1258 22.7251H66.2401L69.8583 7.58594H75.1903L78.8275 22.7251H78.9418L82.0458 7.58594H87.5301L82.1219 28H76.1996L72.5052 13.5654H72.391L68.7157 28H62.8695ZM98.6733 28.4189C95.7407 28.4189 93.4936 26.9336 92.3891 24.5151H92.2749V28H86.7143V0.520996H92.2749V11.1279H92.3891C93.5127 8.65234 95.7788 7.16699 98.6924 7.16699C103.815 7.16699 106.995 11.1279 106.995 17.7739V17.793C106.995 24.4199 103.815 28.4189 98.6733 28.4189ZM96.8262 23.8105C99.5874 23.8105 101.339 21.5063 101.339 17.793V17.7739C101.339 14.0415 99.5874 11.7754 96.8262 11.7754C94.1411 11.7754 92.2749 14.0986 92.2749 17.7739V17.793C92.2749 21.4873 94.1221 23.8105 96.8262 23.8105ZM106.865 28V0.520996H112.425V11.1089H112.54C113.587 8.57617 115.739 7.16699 118.805 7.16699C123.223 7.16699 125.965 10.252 125.965 15.1841V28H120.404V16.3267C120.404 13.4702 118.995 11.7754 116.463 11.7754C114.006 11.7754 112.425 13.6416 112.425 16.3076V28H106.865Z" fill="white"/>
</svg>
