<svg width="188" height="43" viewBox="0 0 188 43" fill="none" xmlns="http://www.w3.org/2000/svg">
<path d="M0.398438 42V1.13379H10.2822L21.8936 30.502H22.0635L33.6748 1.13379H43.5586V42H35.9404V14.3594H35.6855L24.6689 42H19.2881L8.24316 14.3594H8.0166V42H0.398438ZM53.4186 42.4814C47.3297 42.4814 43.2233 38.6582 43.2233 33.3057V33.249C43.2233 27.7266 47.4996 24.498 55.0329 24.0166L62.5377 23.5635V21.6943C62.5377 19.0039 60.7819 17.333 57.5534 17.333C54.4664 17.333 52.5973 18.7773 52.2008 20.7314L52.1442 20.9863H44.5827L44.611 20.6465C45.0641 15.0391 49.8786 11.0176 57.8932 11.0176C65.7379 11.0176 70.8073 15.0674 70.8073 21.1846V42H62.5377V37.4688H62.3678C60.6403 40.584 57.4118 42.4814 53.4186 42.4814ZM51.4079 32.8809C51.4079 35.1182 53.2487 36.4492 56.109 36.4492C59.819 36.4492 62.5377 34.0703 62.5377 30.8984V28.7178L56.2789 29.1143C53.0788 29.3125 51.4079 30.6719 51.4079 32.8242V32.8809ZM73.7288 42V17.8711H69.594V11.6406H73.7288V9.20508C73.7288 3.25781 76.5608 0.510742 83.7259 0.510742C85.2552 0.510742 86.9261 0.652344 87.8889 0.850586V6.31641C87.3225 6.20312 86.5296 6.1748 85.7649 6.1748C83.0179 6.1748 81.8001 7.33594 81.8001 9.5166V11.6406H87.8323V17.8711H81.9983V42H73.7288ZM93.4726 42L85.4013 11.6406H93.7275L98.3154 34.1553H98.4853L103.866 11.6406H111.796L117.205 34.1553H117.375L121.991 11.6406H130.147L122.104 42H113.297L107.803 20.5332H107.633L102.167 42H93.4726ZM146.719 42.623C142.358 42.623 139.016 40.4141 137.374 36.8174H137.204V42H128.934V1.13379H137.204V16.9082H137.374C139.044 13.2266 142.415 11.0176 146.748 11.0176C154.366 11.0176 159.095 16.9082 159.095 26.792V26.8203C159.095 36.6758 154.366 42.623 146.719 42.623ZM143.972 35.7695C148.079 35.7695 150.684 32.3428 150.684 26.8203V26.792C150.684 21.2412 148.079 17.8711 143.972 17.8711C139.979 17.8711 137.204 21.3262 137.204 26.792V26.8203C137.204 32.3145 139.951 35.7695 143.972 35.7695ZM158.902 42V1.13379H167.171V16.8799H167.341C168.899 13.1133 172.099 11.0176 176.658 11.0176C183.229 11.0176 187.307 15.6055 187.307 22.9404V42H179.037V24.6396C179.037 20.3916 176.942 17.8711 173.175 17.8711C169.522 17.8711 167.171 20.6465 167.171 24.6113V42H158.902Z" fill="white"/>
</svg>
