<svg width="385" height="90" viewBox="0 0 385 90" fill="none" xmlns="http://www.w3.org/2000/svg">
<path d="M0.88 88V2.2H29.44L39.88 39.76L44.8 59.32H45.04C47.28 49.88 48.88 43.36 49.84 39.76L60.4 2.2H89.2V88H69.76V44.8L70.12 27.64H69.88C67.88 36.2 66.56 41.52 65.92 43.6L53.56 88H36.04L23.8 43.72L19.84 27.64H19.6C19.84 36.84 19.96 42.6 19.96 44.92V88H0.88ZM108.278 89.56C101.958 89.56 96.8781 87.92 93.0381 84.64C89.1981 81.36 87.2781 76.76 87.2781 70.84C87.2781 64.6 89.3581 60.08 93.5181 57.28C97.6781 54.4 103.438 52.48 110.798 51.52C116.798 50.8 120.878 50 123.038 49.12C125.278 48.16 126.398 46.68 126.398 44.68C126.398 40.28 123.598 38.08 117.998 38.08C111.998 38.08 108.678 40.72 108.038 46H90.0381C90.2781 39.92 92.7581 34.88 97.4781 30.88C102.278 26.88 109.078 24.88 117.878 24.88C126.678 24.88 133.318 26.56 137.798 29.92C142.998 33.68 145.598 39.52 145.598 47.44V78.4C145.598 83.28 146.318 86.2 147.758 87.16V88H128.798C127.998 86.88 127.318 84.6 126.758 81.16H126.518C122.598 86.76 116.518 89.56 108.278 89.56ZM114.518 77.08C118.198 77.08 121.158 76.08 123.398 74.08C125.718 72 126.878 69.32 126.878 66.04V58.72C124.958 59.68 121.598 60.76 116.798 61.96C112.878 62.84 110.118 63.88 108.518 65.08C106.918 66.28 106.118 68 106.118 70.24C106.118 74.8 108.918 77.08 114.518 77.08ZM150.04 88V39.04H142.12V26.56H150.04V22.12C150.04 15.96 151.72 11.2 155.08 7.83999C159.96 3.03999 168.64 1.28 181.12 2.56V16.36C176.96 16.2 174 16.56 172.24 17.44C170.48 18.32 169.6 20.36 169.6 23.56V26.56H181.12V39.04H169.6V88H150.04ZM193.98 88L175.14 26.56H195.06L201.78 52L204.54 63.88H204.78C205.74 59.16 206.66 55.08 207.54 51.64L214.02 26.56H230.58L237.3 51.64L240.18 64H240.42C241.46 59.28 242.42 55.28 243.3 52L250.14 26.56H269.46L250.62 88H232.26L225.06 60.16L222.42 49.12H222.18C221.22 53.28 220.3 56.96 219.42 60.16L212.1 88H193.98ZM302.004 89.92C293.524 89.92 287.324 86.68 283.404 80.2H283.164V88H264.444V2.2H284.004V33.52H284.364C288.604 27.68 294.444 24.76 301.884 24.76C309.724 24.76 316.044 27.84 320.844 34C325.724 40.16 328.164 47.92 328.164 57.28C328.164 67.44 325.804 75.44 321.084 81.28C316.364 87.04 310.004 89.92 302.004 89.92ZM296.484 74.44C300.244 74.44 303.164 72.92 305.244 69.88C307.324 66.84 308.364 62.6 308.364 57.16C308.364 51.8 307.324 47.56 305.244 44.44C303.164 41.24 300.164 39.64 296.244 39.64C292.084 39.64 288.884 41.28 286.644 44.56C284.484 47.76 283.404 52 283.404 57.28C283.404 62.4 284.564 66.56 286.884 69.76C289.284 72.88 292.484 74.44 296.484 74.44ZM325.157 88V2.2H344.717V34.12H345.077C349.797 27.88 355.877 24.76 363.317 24.76C369.957 24.76 375.157 26.92 378.917 31.24C382.757 35.48 384.677 41.08 384.677 48.04V88H365.117V52C365.117 48.64 364.277 46 362.597 44.08C360.997 42.08 358.637 41.08 355.517 41.08C352.317 41.08 349.717 42.28 347.717 44.68C345.717 47.08 344.717 50.2 344.717 54.04V88H325.157Z" fill="white"/>
</svg>
